<svg width="13" height="14" viewBox="0 0 13 14" fill="none" xmlns="http://www.w3.org/2000/svg">
<path fill-rule="evenodd" clip-rule="evenodd" d="M7.59236 8.41379C6.16044 9.84571 3.83883 9.84571 2.40691 8.41379C0.974987 6.98187 0.974987 4.66027 2.40691 3.22834C3.83883 1.79642 6.16044 1.79642 7.59236 3.22834C9.02428 4.66027 9.02428 6.98187 7.59236 8.41379ZM8.03274 9.79675C6.07252 11.2961 3.25693 11.1494 1.4641 9.3566C-0.488521 7.40398 -0.488521 4.23816 1.4641 2.28553C3.41672 0.332912 6.58255 0.332912 8.53517 2.28553C10.3279 4.07828 10.4747 6.8937 8.97552 8.85391L12.5422 12.4206L11.5994 13.3634L8.03274 9.79675Z" fill="#999999"/>
</svg>
